<svg width="96" height="96" viewBox="0 0 96 96" fill="none" xmlns="http://www.w3.org/2000/svg">
<rect width="96" height="96" rx="48" fill="#E5E7EB"/>
<mask id="mask0_17_209" style="mask-type:alpha" maskUnits="userSpaceOnUse" x="12" y="12" width="72" height="72">
<rect x="12" y="12" width="72" height="72" fill="#D9D9D9"/>
</mask>
<g mask="url(#mask0_17_209)">
<path d="M44.775 57.375L40.575 53.175C40.275 52.875 39.95 52.65 39.6 52.5C39.25 52.35 38.8875 52.275 38.5125 52.275C38.1375 52.275 37.7625 52.35 37.3875 52.5C37.0125 52.65 36.675 52.875 36.375 53.175C35.775 53.775 35.475 54.4875 35.475 55.3125C35.475 56.1375 35.775 56.85 36.375 57.45L42.75 63.9C43.05 64.2 43.375 64.4125 43.725 64.5375C44.075 64.6625 44.45 64.725 44.85 64.725C45.25 64.725 45.625 64.6625 45.975 64.5375C46.325 64.4125 46.65 64.2 46.95 63.9L59.625 51.225C60.225 50.625 60.525 49.9 60.525 49.05C60.525 48.2 60.225 47.475 59.625 46.875C59.025 46.275 58.3 45.975 57.45 45.975C56.6 45.975 55.875 46.275 55.275 46.875L44.775 57.375ZM30 78C28.35 78 26.9375 77.4125 25.7625 76.2375C24.5875 75.0625 24 73.65 24 72V24C24 22.35 24.5875 20.9375 25.7625 19.7625C26.9375 18.5875 28.35 18 30 18H51.525C52.325 18 53.0875 18.15 53.8125 18.45C54.5375 18.75 55.175 19.175 55.725 19.725L70.275 34.275C70.825 34.825 71.25 35.4625 71.55 36.1875C71.85 36.9125 72 37.675 72 38.475V72C72 73.65 71.4125 75.0625 70.2375 76.2375C69.0625 77.4125 67.65 78 66 78H30ZM51 36V24H30V72H66V39H54C53.15 39 52.4375 38.7125 51.8625 38.1375C51.2875 37.5625 51 36.85 51 36Z" fill="#364153"/>
</g>
</svg>
